STARTFONT 2.1
FONT -Adobe-Helvetica-Medium-R-Narrow--19-140-100-100-P-83-ISO8859-1
SIZE 14 100 100
FONTBOUNDINGBOX 18 18 -3 -4

STARTPROPERTIES 26
_DEC_DEVICE_FONTNAMES "PS=Helvetica-Narrow"
FONTNAME_REGISTRY ""
FAMILY_NAME "Helvetica"
FOUNDRY "Adobe"
WEIGHT_NAME "Medium"
SLANT "R"
SETWIDTH_NAME "Narrow"
ADD_STYLE_NAME ""
PIXEL_SIZE 19
POINT_SIZE 140
RESOLUTION_X 100
RESOLUTION_Y 100
SPACING "P"
AVERAGE_WIDTH 83
CHARSET_REGISTRY "ISO8859"
CHARSET_ENCODING "1"
CHARSET_COLLECTIONS "ASCII ISO8859-1 ADOBE-STANDARD"
FULL_NAME "Helvetica Narrow"
COPYRIGHT "Copyright (c) 1991 Adobe Systems, Inc."
CAP_HEIGHT 14
X_HEIGHT 10
WEIGHT 10
QUAD_WIDTH 9
DEFAULT_CHAR 0
FONT_DESCENT 4
FONT_ASCENT 14
ENDPROPERTIES

CHARS 190

STARTCHAR space
ENCODING 32
SWIDTH 228 0
DWIDTH 4 0
BBX 1 1 0 0
BITMAP
00
ENDCHAR

STARTCHAR exclam
ENCODING 33
SWIDTH 228 0
DWIDTH 4 0
BBX 2 14 1 0
BITMAP
C0
C0
C0
C0
C0
C0
C0
C0
C0
C0
C0
00
C0
C0
ENDCHAR

STARTCHAR quotedbl
ENCODING 34
SWIDTH 291 0
DWIDTH 6 0
BBX 5 4 0 10
BITMAP
D8
D8
D8
90
ENDCHAR

STARTCHAR numbersign
ENCODING 35
SWIDTH 456 0
DWIDTH 9 0
BBX 9 13 0 0
BITMAP
1B00
1B00
1B00
7F80
3600
3600
3600
3600
FF00
6C00
6C00
6C00
6C00
ENDCHAR

STARTCHAR dollar
ENCODING 36
SWIDTH 456 0
DWIDTH 9 0
BBX 8 16 1 -2
BITMAP
18
3C
7E
DB
DB
D8
78
3E
1F
1B
DB
DB
7E
3C
18
18
ENDCHAR

STARTCHAR percent
ENCODING 37
SWIDTH 729 0
DWIDTH 12 0
BBX 11 13 0 0
BITMAP
6080
F180
9300
9300
F600
6600
0C00
0CC0
19E0
1920
3120
31E0
20C0
ENDCHAR

STARTCHAR ampersand
ENCODING 38
SWIDTH 547 0
DWIDTH 10 0
BBX 9 13 1 0
BITMAP
3C00
6600
6600
6600
3C00
1800
3800
6D00
C700
C300
C300
E700
7D80
ENDCHAR

STARTCHAR quoteright
ENCODING 39
SWIDTH 182 0
DWIDTH 3 0
BBX 2 4 0 10
BITMAP
C0
C0
40
80
ENDCHAR

STARTCHAR parenleft
ENCODING 40
SWIDTH 273 0
DWIDTH 5 0
BBX 3 18 1 -4
BITMAP
20
20
60
60
C0
C0
C0
C0
C0
C0
C0
C0
C0
40
60
60
20
20
ENDCHAR

STARTCHAR parenright
ENCODING 41
SWIDTH 273 0
DWIDTH 5 0
BBX 3 18 1 -4
BITMAP
80
80
C0
C0
60
60
60
60
60
60
60
60
60
40
C0
C0
80
80
ENDCHAR

STARTCHAR asterisk
ENCODING 42
SWIDTH 319 0
DWIDTH 6 0
BBX 5 5 0 9
BITMAP
20
20
F8
70
50
ENDCHAR

STARTCHAR plus
ENCODING 43
SWIDTH 479 0
DWIDTH 9 0
BBX 7 9 1 1
BITMAP
10
10
10
10
FE
10
10
10
10
ENDCHAR

STARTCHAR comma
ENCODING 44
SWIDTH 228 0
DWIDTH 4 0
BBX 2 4 1 -2
BITMAP
C0
C0
40
80
ENDCHAR

STARTCHAR minus
ENCODING 45
SWIDTH 479 0
DWIDTH 9 0
BBX 7 1 1 5
BITMAP
FE
ENDCHAR

STARTCHAR period
ENCODING 46
SWIDTH 228 0
DWIDTH 4 0
BBX 2 2 1 0
BITMAP
C0
C0
ENDCHAR

STARTCHAR slash
ENCODING 47
SWIDTH 228 0
DWIDTH 5 0
BBX 5 14 0 0
BITMAP
08
08
08
10
10
10
20
20
40
40
40
80
80
80
ENDCHAR

STARTCHAR zero
ENCODING 48
SWIDTH 456 0
DWIDTH 9 0
BBX 8 14 1 0
BITMAP
3C
7E
66
C3
C3
C3
C3
C3
C3
C3
C3
66
7E
3C
ENDCHAR

STARTCHAR one
ENCODING 49
SWIDTH 456 0
DWIDTH 9 0
BBX 4 14 2 0
BITMAP
30
30
F0
F0
30
30
30
30
30
30
30
30
30
30
ENDCHAR

STARTCHAR two
ENCODING 50
SWIDTH 456 0
DWIDTH 9 0
BBX 7 14 1 0
BITMAP
7C
FE
C6
C6
06
0C
1C
38
70
60
C0
C0
FE
FE
ENDCHAR

STARTCHAR three
ENCODING 51
SWIDTH 456 0
DWIDTH 9 0
BBX 7 14 1 0
BITMAP
38
7C
EE
C6
06
0E
3C
3C
0E
06
C6
EE
7C
38
ENDCHAR

STARTCHAR four
ENCODING 52
SWIDTH 456 0
DWIDTH 9 0
BBX 7 14 1 0
BITMAP
0C
1C
1C
3C
3C
6C
6C
CC
CC
FE
FE
0C
0C
0C
ENDCHAR

STARTCHAR five
ENCODING 53
SWIDTH 456 0
DWIDTH 9 0
BBX 7 14 1 0
BITMAP
FC
FC
C0
C0
C0
D8
FC
CE
06
06
C6
EE
7C
38
ENDCHAR

STARTCHAR six
ENCODING 54
SWIDTH 456 0
DWIDTH 9 0
BBX 7 14 1 0
BITMAP
38
7C
EE
C6
C0
D8
FC
EE
C6
C6
C6
EE
7C
38
ENDCHAR

STARTCHAR seven
ENCODING 55
SWIDTH 456 0
DWIDTH 9 0
BBX 7 14 1 0
BITMAP
FE
FE
06
06
0C
0C
18
18
18
30
30
30
60
60
ENDCHAR

STARTCHAR eight
ENCODING 56
SWIDTH 456 0
DWIDTH 9 0
BBX 7 14 1 0
BITMAP
38
7C
EE
C6
C6
6C
38
7C
EE
C6
C6
EE
7C
38
ENDCHAR

STARTCHAR nine
ENCODING 57
SWIDTH 456 0
DWIDTH 9 0
BBX 7 14 1 0
BITMAP
38
7C
EE
C6
C6
C6
EE
7E
36
06
C6
EE
7C
38
ENDCHAR

STARTCHAR colon
ENCODING 58
SWIDTH 228 0
DWIDTH 4 0
BBX 2 10 1 0
BITMAP
C0
C0
00
00
00
00
00
00
C0
C0
ENDCHAR

STARTCHAR semicolon
ENCODING 59
SWIDTH 228 0
DWIDTH 4 0
BBX 2 12 1 -2
BITMAP
C0
C0
00
00
00
00
00
00
C0
C0
40
80
ENDCHAR

STARTCHAR less
ENCODING 60
SWIDTH 479 0
DWIDTH 9 0
BBX 7 8 1 1
BITMAP
02
0E
38
E0
E0
38
0E
02
ENDCHAR

STARTCHAR equal
ENCODING 61
SWIDTH 479 0
DWIDTH 9 0
BBX 7 4 1 3
BITMAP
FE
00
00
FE
ENDCHAR

STARTCHAR greater
ENCODING 62
SWIDTH 479 0
DWIDTH 9 0
BBX 7 8 1 1
BITMAP
80
E0
38
0E
0E
38
E0
80
ENDCHAR

STARTCHAR question
ENCODING 63
SWIDTH 456 0
DWIDTH 8 0
BBX 7 14 1 0
BITMAP
7C
7C
C6
C6
06
0C
1C
18
30
30
00
00
30
30
ENDCHAR

STARTCHAR at
ENCODING 64
SWIDTH 832 0
DWIDTH 14 0
BBX 13 17 0 -3
BITMAP
07C0
1FE0
3830
3018
6758
CFD8
CCD8
D8D8
D998
D998
D9B0
CFF0
6EE0
7000
3800
1FC0
0780
ENDCHAR

STARTCHAR A
ENCODING 65
SWIDTH 547 0
DWIDTH 10 0
BBX 10 14 0 0
BITMAP
0C00
0C00
1E00
1E00
1200
3300
3300
3300
3F00
7F80
6180
6180
C0C0
C0C0
ENDCHAR

STARTCHAR B
ENCODING 66
SWIDTH 547 0
DWIDTH 10 0
BBX 8 14 1 0
BITMAP
FC
FE
C7
C3
C3
C7
FE
FE
C7
C3
C3
C7
FE
FC
ENDCHAR

STARTCHAR C
ENCODING 67
SWIDTH 592 0
DWIDTH 12 0
BBX 10 14 1 0
BITMAP
0E00
3F80
71C0
60C0
C000
C000
C000
C000
C000
C000
60C0
71C0
3F80
0E00
ENDCHAR

STARTCHAR D
ENCODING 68
SWIDTH 592 0
DWIDTH 11 0
BBX 9 14 1 0
BITMAP
F800
FE00
C700
C300
C180
C180
C180
C180
C180
C180
C300
C700
FE00
F800
ENDCHAR

STARTCHAR E
ENCODING 69
SWIDTH 547 0
DWIDTH 10 0
BBX 8 14 1 0
BITMAP
FF
FF
C0
C0
C0
C0
FE
FE
C0
C0
C0
C0
FF
FF
ENDCHAR

STARTCHAR F
ENCODING 70
SWIDTH 501 0
DWIDTH 9 0
BBX 7 14 1 0
BITMAP
FE
FE
C0
C0
C0
C0
FE
FE
C0
C0
C0
C0
C0
C0
ENDCHAR

STARTCHAR G
ENCODING 71
SWIDTH 638 0
DWIDTH 12 0
BBX 10 14 1 0
BITMAP
0E00
3F80
71C0
60C0
C0C0
C000
C000
C3C0
C3C0
C0C0
60C0
71C0
3FC0
0EC0
ENDCHAR

STARTCHAR H
ENCODING 72
SWIDTH 592 0
DWIDTH 11 0
BBX 9 14 1 0
BITMAP
C180
C180
C180
C180
C180
C180
FF80
FF80
C180
C180
C180
C180
C180
C180
ENDCHAR

STARTCHAR I
ENCODING 73
SWIDTH 228 0
DWIDTH 4 0
BBX 2 14 1 0
BITMAP
C0
C0
C0
C0
C0
C0
C0
C0
C0
C0
C0
C0
C0
C0
ENDCHAR

STARTCHAR J
ENCODING 74
SWIDTH 410 0
DWIDTH 8 0
BBX 7 14 0 0
BITMAP
06
06
06
06
06
06
06
06
06
C6
C6
EE
7C
38
ENDCHAR

STARTCHAR K
ENCODING 75
SWIDTH 547 0
DWIDTH 10 0
BBX 9 14 0 0
BITMAP
C180
C380
C700
CE00
DC00
F800
F000
F000
F800
DC00
CE00
C700
C380
C180
ENDCHAR

STARTCHAR L
ENCODING 76
SWIDTH 456 0
DWIDTH 9 0
BBX 7 14 1 0
BITMAP
C0
C0
C0
C0
C0
C0
C0
C0
C0
C0
C0
C0
FE
FE
ENDCHAR

STARTCHAR M
ENCODING 77
SWIDTH 683 0
DWIDTH 14 0
BBX 12 14 1 0
BITMAP
C030
C030
E070
E070
E070
F0F0
F0F0
F9F0
D9B0
DFB0
CF30
CF30
C630
C630
ENDCHAR

STARTCHAR N
ENCODING 78
SWIDTH 592 0
DWIDTH 10 0
BBX 8 14 1 0
BITMAP
C3
C3
E3
E3
F3
F3
DB
DB
CF
CF
C7
C7
C3
C3
ENDCHAR

STARTCHAR O
ENCODING 79
SWIDTH 638 0
DWIDTH 13 0
BBX 11 14 1 0
BITMAP
0E00
3F80
71C0
60C0
C060
C060
C060
C060
C060
C060
60C0
71C0
3F80
0E00
ENDCHAR

STARTCHAR P
ENCODING 80
SWIDTH 547 0
DWIDTH 10 0
BBX 8 14 1 0
BITMAP
FC
FE
C7
C3
C3
C7
FE
FC
C0
C0
C0
C0
C0
C0
ENDCHAR

STARTCHAR Q
ENCODING 81
SWIDTH 638 0
DWIDTH 13 0
BBX 11 14 1 0
BITMAP
0E00
3F80
71C0
60C0
C060
C060
C060
C060
C060
C660
6360
71C0
3FC0
0E60
ENDCHAR

STARTCHAR R
ENCODING 82
SWIDTH 592 0
DWIDTH 11 0
BBX 9 14 1 0
BITMAP
FE00
FF00
C380
C180
C180
C380
FF00
FE00
C700
C380
C180
C180
C180
C180
ENDCHAR

STARTCHAR S
ENCODING 83
SWIDTH 547 0
DWIDTH 10 0
BBX 8 14 1 0
BITMAP
3C
7E
E7
C3
C0
E0
7C
1E
03
03
C3
E7
7E
3C
ENDCHAR

STARTCHAR T
ENCODING 84
SWIDTH 501 0
DWIDTH 10 0
BBX 8 14 1 0
BITMAP
FF
FF
18
18
18
18
18
18
18
18
18
18
18
18
ENDCHAR

STARTCHAR U
ENCODING 85
SWIDTH 592 0
DWIDTH 11 0
BBX 9 14 1 0
BITMAP
C180
C180
C180
C180
C180
C180
C180
C180
C180
C180
C180
E380
7F00
3E00
ENDCHAR

STARTCHAR V
ENCODING 86
SWIDTH 547 0
DWIDTH 10 0
BBX 10 14 0 0
BITMAP
C0C0
C0C0
6180
6180
6180
3300
3300
3300
3300
1200
1E00
1E00
0C00
0C00
ENDCHAR

STARTCHAR W
ENCODING 87
SWIDTH 774 0
DWIDTH 16 0
BBX 14 14 1 0
BITMAP
C30C
C30C
C30C
6318
6798
6798
37B0
37B0
34B0
3CF0
1CE0
1860
1860
1860
ENDCHAR

STARTCHAR X
ENCODING 88
SWIDTH 547 0
DWIDTH 10 0
BBX 8 14 1 0
BITMAP
C3
C3
66
66
3C
3C
18
18
3C
7E
66
E7
C3
C3
ENDCHAR

STARTCHAR Y
ENCODING 89
SWIDTH 547 0
DWIDTH 10 0
BBX 10 14 0 0
BITMAP
C0C0
E1C0
6180
3300
3300
1E00
1E00
0C00
0C00
0C00
0C00
0C00
0C00
0C00
ENDCHAR

STARTCHAR Z
ENCODING 90
SWIDTH 501 0
DWIDTH 9 0
BBX 8 14 0 0
BITMAP
7F
7F
03
07
06
0C
1C
18
38
30
60
60
FF
FF
ENDCHAR

STARTCHAR bracketleft
ENCODING 91
SWIDTH 228 0
DWIDTH 4 0
BBX 3 18 1 -4
BITMAP
E0
C0
C0
C0
C0
C0
C0
C0
C0
C0
C0
C0
C0
C0
C0
C0
E0
E0
ENDCHAR

STARTCHAR backslash
ENCODING 92
SWIDTH 228 0
DWIDTH 4 0
BBX 4 14 0 0
BITMAP
80
80
80
40
40
40
40
20
20
20
20
10
10
10
ENDCHAR

STARTCHAR bracketright
ENCODING 93
SWIDTH 228 0
DWIDTH 4 0
BBX 3 18 0 -4
BITMAP
E0
60
60
60
60
60
60
60
60
60
60
60
60
60
60
60
E0
E0
ENDCHAR

STARTCHAR asciicircum
ENCODING 94
SWIDTH 385 0
DWIDTH 7 0
BBX 5 7 1 7
BITMAP
20
20
70
50
D8
88
88
ENDCHAR

STARTCHAR underscore
ENCODING 95
SWIDTH 456 0
DWIDTH 8 0
BBX 8 1 0 -3
BITMAP
FF
ENDCHAR

STARTCHAR quoteleft
ENCODING 96
SWIDTH 182 0
DWIDTH 3 0
BBX 2 4 0 10
BITMAP
40
80
C0
C0
ENDCHAR

STARTCHAR a
ENCODING 97
SWIDTH 456 0
DWIDTH 9 0
BBX 8 10 0 0
BITMAP
3C
7E
66
06
7E
F6
C6
CE
FF
7B
ENDCHAR

STARTCHAR b
ENCODING 98
SWIDTH 456 0
DWIDTH 9 0
BBX 8 14 0 0
BITMAP
C0
C0
C0
C0
DC
FE
E7
C3
C3
C3
C3
E7
FE
DC
ENDCHAR

STARTCHAR c
ENCODING 99
SWIDTH 410 0
DWIDTH 8 0
BBX 7 10 0 0
BITMAP
3C
7E
E6
C0
C0
C0
C0
E6
7E
3C
ENDCHAR

STARTCHAR d
ENCODING 100
SWIDTH 456 0
DWIDTH 9 0
BBX 8 14 0 0
BITMAP
03
03
03
03
3B
7F
E7
C3
C3
C3
C3
E7
7F
3B
ENDCHAR

STARTCHAR e
ENCODING 101
SWIDTH 456 0
DWIDTH 9 0
BBX 8 10 0 0
BITMAP
3C
7E
E7
C3
FF
FF
C0
E3
7E
3C
ENDCHAR

STARTCHAR f
ENCODING 102
SWIDTH 228 0
DWIDTH 5 0
BBX 4 14 0 0
BITMAP
30
70
60
60
F0
F0
60
60
60
60
60
60
60
60
ENDCHAR

STARTCHAR g
ENCODING 103
SWIDTH 456 0
DWIDTH 9 0
BBX 8 14 0 -4
BITMAP
3B
7F
E7
C3
C3
C3
C3
E7
7F
3B
03
67
7E
3C
ENDCHAR

STARTCHAR h
ENCODING 104
SWIDTH 456 0
DWIDTH 8 0
BBX 7 14 0 0
BITMAP
C0
C0
C0
C0
DC
FE
E6
C6
C6
C6
C6
C6
C6
C6
ENDCHAR

STARTCHAR i
ENCODING 105
SWIDTH 182 0
DWIDTH 3 0
BBX 2 14 0 0
BITMAP
C0
C0
C0
00
C0
C0
C0
C0
C0
C0
C0
C0
C0
C0
ENDCHAR

STARTCHAR j
ENCODING 106
SWIDTH 182 0
DWIDTH 3 0
BBX 3 18 -1 -4
BITMAP
60
60
60
00
60
60
60
60
60
60
60
60
60
60
60
60
E0
C0
ENDCHAR

STARTCHAR k
ENCODING 107
SWIDTH 410 0
DWIDTH 8 0
BBX 7 14 0 0
BITMAP
C0
C0
C0
C0
CE
DC
F8
F0
F0
D8
DC
CC
CE
C6
ENDCHAR

STARTCHAR l
ENCODING 108
SWIDTH 182 0
DWIDTH 3 0
BBX 2 14 0 0
BITMAP
C0
C0
C0
C0
C0
C0
C0
C0
C0
C0
C0
C0
C0
C0
ENDCHAR

STARTCHAR m
ENCODING 109
SWIDTH 683 0
DWIDTH 11 0
BBX 10 10 0 0
BITMAP
DB80
FFC0
CCC0
CCC0
CCC0
CCC0
CCC0
CCC0
CCC0
CCC0
ENDCHAR

STARTCHAR n
ENCODING 110
SWIDTH 456 0
DWIDTH 8 0
BBX 7 10 0 0
BITMAP
DC
FE
E6
C6
C6
C6
C6
C6
C6
C6
ENDCHAR

STARTCHAR o
ENCODING 111
SWIDTH 456 0
DWIDTH 9 0
BBX 8 10 0 0
BITMAP
3C
7E
E7
C3
C3
C3
C3
E7
7E
3C
ENDCHAR

STARTCHAR p
ENCODING 112
SWIDTH 456 0
DWIDTH 9 0
BBX 8 14 0 -4
BITMAP
DC
FE
E7
C3
C3
C3
C3
E7
FE
DC
C0
C0
C0
C0
ENDCHAR

STARTCHAR q
ENCODING 113
SWIDTH 456 0
DWIDTH 9 0
BBX 8 14 0 -4
BITMAP
3B
7F
E7
C3
C3
C3
C3
E7
7F
3B
03
03
03
03
ENDCHAR

STARTCHAR r
ENCODING 114
SWIDTH 273 0
DWIDTH 6 0
BBX 5 10 0 0
BITMAP
D8
F8
E0
C0
C0
C0
C0
C0
C0
C0
ENDCHAR

STARTCHAR s
ENCODING 115
SWIDTH 410 0
DWIDTH 7 0
BBX 6 10 0 0
BITMAP
78
FC
CC
C0
70
38
0C
CC
FC
78
ENDCHAR

STARTCHAR t
ENCODING 116
SWIDTH 228 0
DWIDTH 5 0
BBX 4 13 0 0
BITMAP
60
60
60
F0
F0
60
60
60
60
60
60
70
70
ENDCHAR

STARTCHAR u
ENCODING 117
SWIDTH 456 0
DWIDTH 8 0
BBX 7 10 0 0
BITMAP
C6
C6
C6
C6
C6
C6
C6
CE
FE
76
ENDCHAR

STARTCHAR v
ENCODING 118
SWIDTH 410 0
DWIDTH 9 0
BBX 8 10 0 0
BITMAP
C3
C3
C3
66
66
66
3C
3C
18
18
ENDCHAR

STARTCHAR w
ENCODING 119
SWIDTH 592 0
DWIDTH 11 0
BBX 10 10 0 0
BITMAP
CCC0
CCC0
CCC0
CCC0
4C80
7F80
7380
3300
3300
3300
ENDCHAR

STARTCHAR x
ENCODING 120
SWIDTH 410 0
DWIDTH 8 0
BBX 6 10 1 0
BITMAP
CC
CC
78
78
30
30
78
78
CC
CC
ENDCHAR

STARTCHAR y
ENCODING 121
SWIDTH 410 0
DWIDTH 8 0
BBX 7 14 0 -4
BITMAP
C6
C6
C6
6C
6C
6C
68
38
30
30
30
60
60
C0
ENDCHAR

STARTCHAR z
ENCODING 122
SWIDTH 410 0
DWIDTH 7 0
BBX 6 10 0 0
BITMAP
FC
FC
0C
18
30
60
60
C0
FC
FC
ENDCHAR

STARTCHAR braceleft
ENCODING 123
SWIDTH 274 0
DWIDTH 5 0
BBX 4 18 0 -4
BITMAP
30
70
60
60
60
60
60
60
60
C0
60
60
60
60
60
60
70
30
ENDCHAR

STARTCHAR bar
ENCODING 124
SWIDTH 213 0
DWIDTH 4 0
BBX 1 18 1 -4
BITMAP
80
80
80
80
80
80
80
80
80
80
80
80
80
80
80
80
80
80
ENDCHAR

STARTCHAR braceright
ENCODING 125
SWIDTH 274 0
DWIDTH 5 0
BBX 4 18 0 -4
BITMAP
C0
E0
60
60
60
60
60
60
60
30
60
60
60
60
60
60
E0
C0
ENDCHAR

STARTCHAR asciitilde
ENCODING 126
SWIDTH 479 0
DWIDTH 9 0
BBX 7 4 1 4
BITMAP
60
F2
9E
0C
ENDCHAR

STARTCHAR exclamdown
ENCODING 161
SWIDTH 273 0
DWIDTH 5 0
BBX 2 14 1 -4
BITMAP
C0
C0
00
C0
C0
C0
C0
C0
C0
C0
C0
C0
C0
C0
ENDCHAR

STARTCHAR cent
ENCODING 162
SWIDTH 456 0
DWIDTH 9 0
BBX 7 14 1 -2
BITMAP
04
04
3C
7E
EE
CA
D8
D0
D2
F6
7E
3C
20
20
ENDCHAR

STARTCHAR sterling
ENCODING 163
SWIDTH 456 0
DWIDTH 9 0
BBX 8 14 1 0
BITMAP
3C
7E
E7
C3
C3
C0
60
FC
30
30
30
7B
7F
CE
ENDCHAR

STARTCHAR currency
ENCODING 164
SWIDTH 456 0
DWIDTH 9 0
BBX 6 9 2 2
BITMAP
CC
78
78
CC
CC
CC
78
78
CC
ENDCHAR

STARTCHAR yen
ENCODING 165
SWIDTH 456 0
DWIDTH 9 0
BBX 8 14 1 0
BITMAP
C3
C3
C3
66
66
3C
3C
FF
FF
18
FF
FF
18
18
ENDCHAR

STARTCHAR brokenbar
ENCODING 166
SWIDTH 213 0
DWIDTH 4 0
BBX 1 18 1 -4
BITMAP
80
80
80
80
80
80
80
00
00
00
80
80
80
80
80
80
80
80
ENDCHAR

STARTCHAR section
ENCODING 167
SWIDTH 456 0
DWIDTH 9 0
BBX 7 18 1 -4
BITMAP
38
7C
4C
64
70
F8
DC
8E
C6
E2
76
3C
1C
0C
44
64
7C
38
ENDCHAR

STARTCHAR dieresis
ENCODING 168
SWIDTH 273 0
DWIDTH 5 0
BBX 5 2 0 11
BITMAP
D8
D8
ENDCHAR

STARTCHAR copyright
ENCODING 169
SWIDTH 604 0
DWIDTH 14 0
BBX 13 13 0 0
BITMAP
0F80
3060
4010
4710
8888
9008
9008
9008
8888
4710
4010
3060
0F80
ENDCHAR

STARTCHAR ordfeminine
ENCODING 170
SWIDTH 303 0
DWIDTH 6 0
BBX 5 8 0 6
BITMAP
60
90
70
D0
90
F8
00
F8
ENDCHAR

STARTCHAR guillemotleft
ENCODING 171
SWIDTH 456 0
DWIDTH 8 0
BBX 6 6 1 2
BITMAP
24
6C
D8
D8
6C
24
ENDCHAR

STARTCHAR logicalnot
ENCODING 172
SWIDTH 479 0
DWIDTH 9 0
BBX 7 4 1 3
BITMAP
FE
02
02
02
ENDCHAR

STARTCHAR hyphen
ENCODING 173
SWIDTH 273 0
DWIDTH 5 0
BBX 4 1 1 6
BITMAP
F0
ENDCHAR

STARTCHAR registered
ENCODING 174
SWIDTH 604 0
DWIDTH 14 0
BBX 13 13 0 0
BITMAP
0F80
3060
4010
4F90
8848
8848
8F88
8908
8888
4850
4010
3060
0F80
ENDCHAR

STARTCHAR macron
ENCODING 175
SWIDTH 273 0
DWIDTH 5 0
BBX 4 2 0 11
BITMAP
F0
F0
ENDCHAR

STARTCHAR degree
ENCODING 176
SWIDTH 328 0
DWIDTH 7 0
BBX 5 5 1 9
BITMAP
70
D8
88
D8
70
ENDCHAR

STARTCHAR plusminus
ENCODING 177
SWIDTH 479 0
DWIDTH 9 0
BBX 7 11 1 1
BITMAP
10
10
10
10
FE
10
10
10
10
00
FE
ENDCHAR

STARTCHAR twosuperior
ENCODING 178
SWIDTH 273 0
DWIDTH 5 0
BBX 5 8 0 6
BITMAP
70
88
08
10
20
40
80
F8
ENDCHAR

STARTCHAR threesuperior
ENCODING 179
SWIDTH 273 0
DWIDTH 5 0
BBX 5 8 0 6
BITMAP
70
88
08
30
08
08
88
70
ENDCHAR

STARTCHAR acute
ENCODING 180
SWIDTH 273 0
DWIDTH 6 0
BBX 4 3 1 11
BITMAP
30
60
C0
ENDCHAR

STARTCHAR mu
ENCODING 181
SWIDTH 456 0
DWIDTH 8 0
BBX 7 14 0 -4
BITMAP
C6
C6
C6
C6
C6
C6
C6
CE
FE
F6
C0
C0
C0
C0
ENDCHAR

STARTCHAR paragraph
ENCODING 182
SWIDTH 440 0
DWIDTH 8 0
BBX 7 17 1 -3
BITMAP
3E
74
F4
F4
F4
F4
F4
74
34
14
14
14
14
14
14
14
14
ENDCHAR

STARTCHAR periodcentered
ENCODING 183
SWIDTH 228 0
DWIDTH 4 0
BBX 2 2 1 6
BITMAP
C0
C0
ENDCHAR

STARTCHAR cedilla
ENCODING 184
SWIDTH 273 0
DWIDTH 5 0
BBX 4 4 1 -4
BITMAP
40
70
30
E0
ENDCHAR

STARTCHAR onesuperior
ENCODING 185
SWIDTH 273 0
DWIDTH 5 0
BBX 2 8 1 6
BITMAP
40
C0
40
40
40
40
40
40
ENDCHAR

STARTCHAR ordmasculine
ENCODING 186
SWIDTH 299 0
DWIDTH 6 0
BBX 5 8 0 6
BITMAP
70
D8
88
88
D8
70
00
F8
ENDCHAR

STARTCHAR guillemotright
ENCODING 187
SWIDTH 456 0
DWIDTH 8 0
BBX 6 6 1 2
BITMAP
90
D8
6C
6C
D8
90
ENDCHAR

STARTCHAR onequarter
ENCODING 188
SWIDTH 684 0
DWIDTH 13 0
BBX 11 14 1 0
BITMAP
4040
C040
4080
4100
4100
4200
4440
44C0
0940
1240
1440
27E0
4040
4040
ENDCHAR

STARTCHAR onehalf
ENCODING 189
SWIDTH 684 0
DWIDTH 13 0
BBX 11 14 1 0
BITMAP
4040
C040
4080
4100
4100
4200
45C0
4620
0820
1040
1080
2100
4200
43E0
ENDCHAR

STARTCHAR threequarters
ENCODING 190
SWIDTH 684 0
DWIDTH 13 0
BBX 12 14 0 0
BITMAP
7020
8820
0840
3080
0880
0900
8A20
7260
04A0
0920
0A20
13F0
2020
2020
ENDCHAR

STARTCHAR questiondown
ENCODING 191
SWIDTH 501 0
DWIDTH 9 0
BBX 7 14 1 -4
BITMAP
30
30
00
30
30
30
30
60
C0
C6
C6
CE
7C
38
ENDCHAR

STARTCHAR Agrave
ENCODING 192
SWIDTH 547 0
DWIDTH 10 0
BBX 10 14 0 0
BITMAP
1800
0C00
0600
0000
0C00
0C00
1E00
3300
3300
7F80
7F80
6180
C0C0
C0C0
ENDCHAR

STARTCHAR Aacute
ENCODING 193
SWIDTH 547 0
DWIDTH 10 0
BBX 10 14 0 0
BITMAP
0600
0C00
1800
0000
0C00
0C00
1E00
3300
3300
7F80
7F80
6180
C0C0
C0C0
ENDCHAR

STARTCHAR Acircumflex
ENCODING 194
SWIDTH 547 0
DWIDTH 10 0
BBX 10 14 0 0
BITMAP
0C00
1E00
1200
0000
0C00
0C00
1E00
3300
3300
7F80
7F80
6180
C0C0
C0C0
ENDCHAR

STARTCHAR Atilde
ENCODING 195
SWIDTH 547 0
DWIDTH 10 0
BBX 10 14 0 0
BITMAP
0D00
1F00
1600
0000
0C00
0C00
1E00
3300
3300
7F80
7F80
6180
C0C0
C0C0
ENDCHAR

STARTCHAR Adieresis
ENCODING 196
SWIDTH 547 0
DWIDTH 10 0
BBX 10 14 0 0
BITMAP
3600
3600
0000
0000
0C00
0C00
1E00
3300
3300
7F80
7F80
6180
C0C0
C0C0
ENDCHAR

STARTCHAR Aring
ENCODING 197
SWIDTH 547 0
DWIDTH 10 0
BBX 10 14 0 0
BITMAP
1C00
3600
3600
1C00
0C00
0C00
1E00
3300
3300
7F80
7F80
6180
C0C0
C0C0
ENDCHAR

STARTCHAR AE
ENCODING 198
SWIDTH 820 0
DWIDTH 15 0
BBX 13 14 0 0
BITMAP
0FF8
1FF8
1B00
1B00
1300
3300
33F8
33F8
7F00
7F00
6300
C300
C3F8
C3F8
ENDCHAR

STARTCHAR Ccedilla
ENCODING 199
SWIDTH 592 0
DWIDTH 11 0
BBX 10 18 0 -4
BITMAP
0E00
3F80
71C0
60C0
C000
C000
C000
C000
C000
C000
60C0
71C0
3F80
0E00
0800
0E00
0600
1C00
ENDCHAR

STARTCHAR Egrave
ENCODING 200
SWIDTH 547 0
DWIDTH 10 0
BBX 8 14 1 0
BITMAP
30
18
0C
00
FF
FF
C0
C0
FC
FC
C0
C0
FF
FF
ENDCHAR

STARTCHAR Eacute
ENCODING 201
SWIDTH 547 0
DWIDTH 10 0
BBX 8 14 1 0
BITMAP
0C
18
30
00
FF
FF
C0
C0
FC
FC
C0
C0
FF
FF
ENDCHAR

STARTCHAR Ecircumflex
ENCODING 202
SWIDTH 547 0
DWIDTH 10 0
BBX 8 14 1 0
BITMAP
18
3C
24
00
FF
FF
C0
C0
FC
FC
C0
C0
FF
FF
ENDCHAR

STARTCHAR Edieresis
ENCODING 203
SWIDTH 547 0
DWIDTH 10 0
BBX 8 14 1 0
BITMAP
6C
6C
00
00
FF
FF
C0
C0
FC
FC
C0
C0
FF
FF
ENDCHAR

STARTCHAR Igrave
ENCODING 204
SWIDTH 228 0
DWIDTH 4 0
BBX 4 14 0 0
BITMAP
C0
60
30
00
60
60
60
60
60
60
60
60
60
60
ENDCHAR

STARTCHAR Iacute
ENCODING 205
SWIDTH 228 0
DWIDTH 4 0
BBX 4 14 0 0
BITMAP
30
60
C0
00
60
60
60
60
60
60
60
60
60
60
ENDCHAR

STARTCHAR Icircumflex
ENCODING 206
SWIDTH 228 0
DWIDTH 4 0
BBX 4 14 0 0
BITMAP
60
F0
90
00
60
60
60
60
60
60
60
60
60
60
ENDCHAR

STARTCHAR Idieresis
ENCODING 207
SWIDTH 228 0
DWIDTH 4 0
BBX 5 14 0 0
BITMAP
D8
D8
00
00
60
60
60
60
60
60
60
60
60
60
ENDCHAR

STARTCHAR Eth
ENCODING 208
SWIDTH 592 0
DWIDTH 11 0
BBX 10 14 0 0
BITMAP
7C00
7F00
6380
6180
60C0
60C0
F8C0
F8C0
60C0
60C0
6180
6380
7F00
7C00
ENDCHAR

STARTCHAR Ntilde
ENCODING 209
SWIDTH 592 0
DWIDTH 10 0
BBX 8 14 1 0
BITMAP
34
7C
58
00
F3
F3
DB
DB
CF
CF
C7
C7
C3
C3
ENDCHAR

STARTCHAR Ograve
ENCODING 210
SWIDTH 638 0
DWIDTH 13 0
BBX 11 14 1 0
BITMAP
1800
0C00
0600
0000
0E00
3F80
71C0
C060
C060
C060
C060
71C0
3F80
0E00
ENDCHAR

STARTCHAR Oacute
ENCODING 211
SWIDTH 638 0
DWIDTH 13 0
BBX 11 14 1 0
BITMAP
0600
0C00
1800
0000
0E00
3F80
71C0
C060
C060
C060
C060
71C0
3F80
0E00
ENDCHAR

STARTCHAR Ocircumflex
ENCODING 212
SWIDTH 638 0
DWIDTH 13 0
BBX 11 14 1 0
BITMAP
0C00
1E00
1200
0000
0E00
3F80
71C0
C060
C060
C060
C060
71C0
3F80
0E00
ENDCHAR

STARTCHAR Otilde
ENCODING 213
SWIDTH 638 0
DWIDTH 13 0
BBX 11 14 1 0
BITMAP
0D00
1F00
1600
0000
0E00
3F80
71C0
C060
C060
C060
C060
71C0
3F80
0E00
ENDCHAR

STARTCHAR Odieresis
ENCODING 214
SWIDTH 638 0
DWIDTH 13 0
BBX 11 14 1 0
BITMAP
1B00
1B00
0000
0000
0E00
3F80
71C0
C060
C060
C060
C060
71C0
3F80
0E00
ENDCHAR

STARTCHAR multiply
ENCODING 215
SWIDTH 479 0
DWIDTH 9 0
BBX 7 9 1 1
BITMAP
82
C6
6C
38
10
38
6C
C6
82
ENDCHAR

STARTCHAR Oslash
ENCODING 216
SWIDTH 638 0
DWIDTH 13 0
BBX 11 14 1 0
BITMAP
0F20
3FC0
70C0
6160
C260
C260
C460
C860
C860
D060
60C0
61C0
7F80
8E00
ENDCHAR

STARTCHAR Ugrave
ENCODING 217
SWIDTH 592 0
DWIDTH 11 0
BBX 9 14 1 0
BITMAP
3000
1800
0C00
0000
C180
C180
C180
C180
C180
C180
C180
E380
7F00
3E00
ENDCHAR

STARTCHAR Uacute
ENCODING 218
SWIDTH 592 0
DWIDTH 11 0
BBX 9 14 1 0
BITMAP
0C00
1800
3000
0000
C180
C180
C180
C180
C180
C180
C180
E380
7F00
3E00
ENDCHAR

STARTCHAR Ucircumflex
ENCODING 219
SWIDTH 592 0
DWIDTH 11 0
BBX 9 14 1 0
BITMAP
1800
3C00
2400
0000
C180
C180
C180
C180
C180
C180
C180
E380
7F00
3E00
ENDCHAR

STARTCHAR Udieresis
ENCODING 220
SWIDTH 592 0
DWIDTH 11 0
BBX 9 14 1 0
BITMAP
3600
3600
0000
0000
C180
C180
C180
C180
C180
C180
C180
E380
7F00
3E00
ENDCHAR

STARTCHAR Yacute
ENCODING 221
SWIDTH 547 0
DWIDTH 10 0
BBX 10 14 0 0
BITMAP
0300
0600
0C00
0000
C0C0
E1C0
6180
3300
1E00
0C00
0C00
0C00
0C00
0C00
ENDCHAR

STARTCHAR Thorn
ENCODING 222
SWIDTH 547 0
DWIDTH 10 0
BBX 8 14 1 0
BITMAP
C0
C0
C0
FC
FE
C7
C3
C3
C7
FE
FC
C0
C0
C0
ENDCHAR

STARTCHAR germandbls
ENCODING 223
SWIDTH 501 0
DWIDTH 8 0
BBX 7 14 0 0
BITMAP
38
7C
CE
C6
C6
CE
DC
DC
CE
C6
C6
C6
DE
DC
ENDCHAR

STARTCHAR agrave
ENCODING 224
SWIDTH 456 0
DWIDTH 9 0
BBX 8 14 0 0
BITMAP
30
18
0C
00
3C
7E
66
06
7E
F6
C6
CE
FF
7B
ENDCHAR

STARTCHAR aacute
ENCODING 225
SWIDTH 456 0
DWIDTH 9 0
BBX 8 14 0 0
BITMAP
0C
18
30
00
3C
7E
66
06
7E
F6
C6
CE
FF
7B
ENDCHAR

STARTCHAR acircumflex
ENCODING 226
SWIDTH 456 0
DWIDTH 9 0
BBX 8 14 0 0
BITMAP
18
3C
24
00
3C
7E
66
06
7E
F6
C6
CE
FF
7B
ENDCHAR

STARTCHAR atilde
ENCODING 227
SWIDTH 456 0
DWIDTH 9 0
BBX 8 14 0 0
BITMAP
34
7C
58
00
3C
7E
66
06
7E
F6
C6
CE
FF
7B
ENDCHAR

STARTCHAR adieresis
ENCODING 228
SWIDTH 456 0
DWIDTH 9 0
BBX 8 13 0 0
BITMAP
6C
6C
00
3C
7E
66
06
7E
F6
C6
CE
FF
7B
ENDCHAR

STARTCHAR aring
ENCODING 229
SWIDTH 456 0
DWIDTH 9 0
BBX 8 14 0 0
BITMAP
1C
36
36
1C
3C
7E
66
06
7E
F6
C6
CE
FF
7B
ENDCHAR

STARTCHAR ae
ENCODING 230
SWIDTH 729 0
DWIDTH 13 0
BBX 12 10 0 0
BITMAP
39C0
7FE0
6770
0630
7FF0
FFF0
C600
CE30
FFE0
79C0
ENDCHAR

STARTCHAR ccedilla
ENCODING 231
SWIDTH 410 0
DWIDTH 8 0
BBX 7 14 0 -4
BITMAP
3C
7E
E6
C0
C0
C0
C0
E6
7E
3C
20
38
18
70
ENDCHAR

STARTCHAR egrave
ENCODING 232
SWIDTH 456 0
DWIDTH 9 0
BBX 8 14 0 0
BITMAP
30
18
0C
00
3C
7E
E7
C3
FF
FF
C0
E3
7E
3C
ENDCHAR

STARTCHAR eacute
ENCODING 233
SWIDTH 456 0
DWIDTH 9 0
BBX 8 14 0 0
BITMAP
0C
18
30
00
3C
7E
E7
C3
FF
FF
C0
E3
7E
3C
ENDCHAR

STARTCHAR ecircumflex
ENCODING 234
SWIDTH 456 0
DWIDTH 9 0
BBX 8 14 0 0
BITMAP
18
3C
24
00
3C
7E
E7
C3
FF
FF
C0
E3
7E
3C
ENDCHAR

STARTCHAR edieresis
ENCODING 235
SWIDTH 456 0
DWIDTH 9 0
BBX 8 13 0 0
BITMAP
6C
6C
00
3C
7E
E7
C3
FF
FF
C0
E3
7E
3C
ENDCHAR

STARTCHAR igrave
ENCODING 236
SWIDTH 228 0
DWIDTH 3 0
BBX 4 14 -1 0
BITMAP
C0
60
30
00
60
60
60
60
60
60
60
60
60
60
ENDCHAR

STARTCHAR iacute
ENCODING 237
SWIDTH 228 0
DWIDTH 3 0
BBX 4 14 -1 0
BITMAP
30
60
C0
00
60
60
60
60
60
60
60
60
60
60
ENDCHAR

STARTCHAR icircumflex
ENCODING 238
SWIDTH 228 0
DWIDTH 5 0
BBX 4 14 0 0
BITMAP
60
F0
90
00
60
60
60
60
60
60
60
60
60
60
ENDCHAR

STARTCHAR idieresis
ENCODING 239
SWIDTH 228 0
DWIDTH 3 0
BBX 5 13 -1 0
BITMAP
D8
D8
00
60
60
60
60
60
60
60
60
60
60
ENDCHAR

STARTCHAR eth
ENCODING 240
SWIDTH 456 0
DWIDTH 9 0
BBX 8 14 0 0
BITMAP
6C
30
D8
0C
3E
7E
E7
C3
C3
C3
C3
E7
7E
3C
ENDCHAR

STARTCHAR ntilde
ENCODING 241
SWIDTH 456 0
DWIDTH 8 0
BBX 7 14 0 0
BITMAP
34
7C
58
00
DC
FE
E6
C6
C6
C6
C6
C6
C6
C6
ENDCHAR

STARTCHAR ograve
ENCODING 242
SWIDTH 456 0
DWIDTH 9 0
BBX 8 14 0 0
BITMAP
30
18
0C
00
3C
7E
E7
C3
C3
C3
C3
E7
7E
3C
ENDCHAR

STARTCHAR oacute
ENCODING 243
SWIDTH 456 0
DWIDTH 9 0
BBX 8 14 0 0
BITMAP
0C
18
30
00
3C
7E
E7
C3
C3
C3
C3
E7
7E
3C
ENDCHAR

STARTCHAR ocircumflex
ENCODING 244
SWIDTH 456 0
DWIDTH 9 0
BBX 8 14 0 0
BITMAP
18
3C
24
00
3C
7E
E7
C3
C3
C3
C3
E7
7E
3C
ENDCHAR

STARTCHAR otilde
ENCODING 245
SWIDTH 456 0
DWIDTH 9 0
BBX 8 14 0 0
BITMAP
34
7C
58
00
3C
7E
E7
C3
C3
C3
C3
E7
7E
3C
ENDCHAR

STARTCHAR odieresis
ENCODING 246
SWIDTH 456 0
DWIDTH 9 0
BBX 8 13 0 0
BITMAP
6C
6C
00
3C
7E
E7
C3
C3
C3
C3
E7
7E
3C
ENDCHAR

STARTCHAR divide
ENCODING 247
SWIDTH 479 0
DWIDTH 9 0
BBX 8 9 1 1
BITMAP
18
18
00
00
FF
00
00
18
18
ENDCHAR

STARTCHAR oslash
ENCODING 248
SWIDTH 501 0
DWIDTH 11 0
BBX 10 10 0 0
BITMAP
1E40
3F80
7180
6380
6580
6980
7180
6380
7F00
9E00
ENDCHAR

STARTCHAR ugrave
ENCODING 249
SWIDTH 456 0
DWIDTH 8 0
BBX 7 14 0 0
BITMAP
60
30
18
00
C6
C6
C6
C6
C6
C6
C6
CE
FE
76
ENDCHAR

STARTCHAR uacute
ENCODING 250
SWIDTH 456 0
DWIDTH 8 0
BBX 7 14 0 0
BITMAP
18
30
60
00
C6
C6
C6
C6
C6
C6
C6
CE
FE
76
ENDCHAR

STARTCHAR ucircumflex
ENCODING 251
SWIDTH 456 0
DWIDTH 8 0
BBX 7 14 0 0
BITMAP
30
78
48
00
C6
C6
C6
C6
C6
C6
C6
CE
FE
76
ENDCHAR

STARTCHAR udieresis
ENCODING 252
SWIDTH 456 0
DWIDTH 8 0
BBX 7 13 0 0
BITMAP
6C
6C
00
C6
C6
C6
C6
C6
C6
C6
CE
FE
76
ENDCHAR

STARTCHAR yacute
ENCODING 253
SWIDTH 410 0
DWIDTH 8 0
BBX 7 18 0 -4
BITMAP
0C
18
30
00
C6
C6
C6
6C
6C
6C
68
38
30
30
30
60
60
C0
ENDCHAR

STARTCHAR thorn
ENCODING 254
SWIDTH 456 0
DWIDTH 9 0
BBX 8 18 0 -4
BITMAP
C0
C0
C0
C0
DC
FE
E7
C3
C3
C3
C3
E7
FE
DC
C0
C0
C0
C0
ENDCHAR

STARTCHAR ydieresis
ENCODING 255
SWIDTH 410 0
DWIDTH 8 0
BBX 7 17 0 -4
BITMAP
6C
6C
00
C6
C6
C6
6C
6C
6C
68
38
30
30
30
60
60
C0
ENDCHAR
ENDFONT
